<svg width="21" height="21" viewBox="0 0 21 21" fill="none" xmlns="http://www.w3.org/2000/svg">
<path d="M5.64186 6.97324C5.91691 4.49778 8.00931 2.625 10.5 2.625C12.9907 2.625 15.0831 4.49778 15.3581 6.97324L15.5785 8.95618C15.6915 9.97342 16.0226 10.9543 16.5492 11.832L17.055 12.6749C17.3728 13.2047 17.5317 13.4696 17.5609 13.6831C17.6247 14.1511 17.3682 14.6041 16.9341 14.7901C16.736 14.875 16.4271 14.875 15.8093 14.875H5.1907C4.57291 14.875 4.26402 14.875 4.06595 14.7901C3.63179 14.6041 3.37529 14.1511 3.43914 13.6831C3.46827 13.4696 3.62719 13.2047 3.94504 12.6749L4.45082 11.832C4.97741 10.9543 5.30851 9.97342 5.42154 8.95618L5.64186 6.97324Z" stroke="#8B868F" stroke-width="1.68"/>
<path d="M7 14.875C7 15.3346 7.09053 15.7898 7.26642 16.2144C7.44231 16.639 7.70012 17.0249 8.02513 17.3499C8.35013 17.6749 8.73597 17.9327 9.16061 18.1086C9.58525 18.2845 10.0404 18.375 10.5 18.375C10.9596 18.375 11.4148 18.2845 11.8394 18.1086C12.264 17.9327 12.6499 17.6749 12.9749 17.3499C13.2999 17.0249 13.5577 16.639 13.7336 16.2144C13.9095 15.7898 14 15.3346 14 14.875" stroke="#8B868F" stroke-width="1.68" stroke-linecap="round"/>
</svg>
