<svg width="25" height="25" viewBox="0 0 25 25" fill="none" xmlns="http://www.w3.org/2000/svg">
<path d="M6.7165 8.30148C7.04394 5.3545 9.53489 3.125 12.5 3.125C15.4651 3.125 17.9561 5.3545 18.2835 8.30148L18.5458 10.6621C18.6803 11.8731 19.0745 13.0409 19.7014 14.0857L20.3035 15.0892C20.6819 15.7199 20.8711 16.0352 20.9058 16.2894C20.9818 16.8465 20.6764 17.3858 20.1596 17.6073C19.9238 17.7083 19.5561 17.7083 18.8206 17.7083H6.17941C5.44394 17.7083 5.07621 17.7083 4.84041 17.6073C4.32356 17.3858 4.0182 16.8465 4.09421 16.2894C4.12889 16.0352 4.31809 15.7199 4.69648 15.0892L5.2986 14.0857C5.92549 13.0409 6.31965 11.8731 6.45421 10.6621L6.7165 8.30148Z" stroke="white" stroke-width="2"/>
<path d="M8.33268 17.7083C8.33268 18.2555 8.44046 18.7973 8.64985 19.3028C8.85925 19.8084 9.16616 20.2677 9.55307 20.6546C9.93998 21.0415 10.3993 21.3484 10.9048 21.5578C11.4104 21.7672 11.9522 21.875 12.4993 21.875C13.0465 21.875 13.5883 21.7672 14.0939 21.5578C14.5994 21.3484 15.0587 21.0415 15.4456 20.6546C15.8325 20.2677 16.1395 19.8084 16.3488 19.3028C16.5582 18.7973 16.666 18.2555 16.666 17.7083" stroke="white" stroke-width="2" stroke-linecap="round"/>
</svg>
