<svg width="27" height="28" viewBox="0 0 27 28" fill="none" xmlns="http://www.w3.org/2000/svg">
<path fill-rule="evenodd" clip-rule="evenodd" d="M7.3125 18.5H18C20.1213 18.5 21.182 18.5 21.841 17.841C22.5 17.182 22.5 16.1213 22.5 14V8.375C22.5 6.25368 22.5 5.19302 21.841 4.53401C21.182 3.875 20.1213 3.875 18 3.875H9C6.87868 3.875 5.81802 3.875 5.15901 4.53401C4.5 5.19302 4.5 6.25368 4.5 8.375V21.3125C4.5 19.7592 5.7592 18.5 7.3125 18.5ZM19.375 9.5C19.375 8.11929 18.2557 7 16.875 7L10.125 7C8.74429 7 7.625 8.11929 7.625 9.5C7.625 10.8807 8.74429 12 10.125 12L16.875 12C18.2557 12 19.375 10.8807 19.375 9.5Z" fill="#8B868F"/>
<path d="M21.841 17.841L20.9571 16.9571L20.9571 16.9571L21.841 17.841ZM16.875 7V5.75V7ZM10.125 7V8.25V7ZM10.125 12V10.75V12ZM16.875 12V13.25V12ZM18 18.5V17.25H7.3125V18.5V19.75H18V18.5ZM21.841 17.841L20.9571 16.9571C20.8986 17.0156 20.7764 17.115 20.3023 17.1788C19.7922 17.2473 19.096 17.25 18 17.25V18.5V19.75C19.0253 19.75 19.9201 19.7527 20.6354 19.6565C21.3867 19.5555 22.1244 19.3253 22.7249 18.7249L21.841 17.841ZM22.5 14H21.25C21.25 15.096 21.2473 15.7922 21.1788 16.3023C21.115 16.7764 21.0156 16.8986 20.9571 16.9571L21.841 17.841L22.7249 18.7249C23.3253 18.1244 23.5555 17.3867 23.6565 16.6354C23.7527 15.9201 23.75 15.0253 23.75 14H22.5ZM22.5 8.375H21.25V14H22.5H23.75V8.375H22.5ZM21.841 4.53401L20.9571 5.41789C21.0156 5.47644 21.115 5.5986 21.1788 6.0727C21.2473 6.58275 21.25 7.279 21.25 8.375H22.5H23.75C23.75 7.34968 23.7527 6.45494 23.6565 5.73958C23.5555 4.98826 23.3253 4.25059 22.7249 3.65013L21.841 4.53401ZM18 3.875V5.125C19.096 5.125 19.7922 5.12765 20.3023 5.19623C20.7764 5.25997 20.8986 5.35935 20.9571 5.41789L21.841 4.53401L22.7249 3.65013C22.1244 3.04966 21.3867 2.81953 20.6354 2.71852C19.9201 2.62235 19.0253 2.625 18 2.625V3.875ZM9 3.875V5.125H18V3.875V2.625H9V3.875ZM5.15901 4.53401L6.04289 5.41789C6.10144 5.35935 6.2236 5.25997 6.6977 5.19623C7.20775 5.12765 7.904 5.125 9 5.125V3.875V2.625C7.97468 2.625 7.07994 2.62235 6.36458 2.71852C5.61326 2.81953 4.87559 3.04966 4.27513 3.65013L5.15901 4.53401ZM4.5 8.375H5.75C5.75 7.279 5.75265 6.58275 5.82123 6.0727C5.88497 5.5986 5.98435 5.47644 6.04289 5.41789L5.15901 4.53401L4.27513 3.65013C3.67466 4.25059 3.44453 4.98826 3.34352 5.73958C3.24735 6.45494 3.25 7.34968 3.25 8.375H4.5ZM4.5 21.3125H5.75V8.375H4.5H3.25V21.3125H4.5ZM7.3125 18.5V17.25C5.06884 17.25 3.25 19.0688 3.25 21.3125H4.5H5.75C5.75 20.4496 6.44956 19.75 7.3125 19.75V18.5ZM16.875 7V8.25C17.5654 8.25 18.125 8.80965 18.125 9.5H19.375H20.625C20.625 7.42893 18.9461 5.75 16.875 5.75V7ZM10.125 7V8.25L16.875 8.25V7V5.75L10.125 5.75V7ZM7.625 9.5H8.875C8.875 8.80964 9.43464 8.25 10.125 8.25V7V5.75C8.05393 5.75 6.375 7.42893 6.375 9.5H7.625ZM10.125 12V10.75C9.43464 10.75 8.875 10.1904 8.875 9.5H7.625H6.375C6.375 11.5711 8.05393 13.25 10.125 13.25V12ZM16.875 12V10.75L10.125 10.75V12V13.25L16.875 13.25V12ZM19.375 9.5H18.125C18.125 10.1904 17.5654 10.75 16.875 10.75V12V13.25C18.9461 13.25 20.625 11.5711 20.625 9.5H19.375ZM12.375 24.125V22.875H7.3125V24.125V25.375H12.375V24.125ZM4.5 21.3125H3.25C3.25 23.5562 5.06884 25.375 7.3125 25.375V24.125V22.875C6.44956 22.875 5.75 22.1754 5.75 21.3125H4.5Z" fill="#8B868F"/>
<path d="M22.5 24.125H11.25" stroke="#8B868F" stroke-width="2.5" stroke-linecap="round"/>
</svg>
