<svg width="20" height="20" viewBox="0 0 20 20" fill="none" xmlns="http://www.w3.org/2000/svg">
<path d="M9.99967 6.66709L3.33301 13.3338V16.6671H16.6663M3.33301 16.6671L6.66634 16.6671L13.333 10.0004M9.99967 6.66709L12.3902 4.27654L12.3916 4.27513C12.7207 3.94606 12.8855 3.78123 13.0755 3.7195C13.2429 3.66512 13.4232 3.66512 13.5906 3.7195C13.7804 3.78119 13.9451 3.94583 14.2737 4.27443L15.7235 5.72426C16.0535 6.05427 16.2186 6.21936 16.2804 6.40963C16.3348 6.577 16.3348 6.75729 16.2804 6.92466C16.2186 7.11479 16.0538 7.27963 15.7243 7.60917L15.7235 7.60988L13.333 10.0004M9.99967 6.66709L13.333 10.0004" stroke="#FFFFFF" stroke-linecap="round" stroke-linejoin="round"/>
</svg>
