<svg width="17" height="17" viewBox="0 0 17 17" fill="none" xmlns="http://www.w3.org/2000/svg">
<path d="M8.12891 5.29346C8.92768 6.69986 10.1025 7.86533 11.5264 8.65576L6.33008 13.853C6.12927 14.0538 5.97292 14.2169 5.77344 14.3237C5.57388 14.4305 5.35176 14.4702 5.07324 14.5259L2.55762 15.0288C2.48583 15.0432 2.38669 15.0644 2.30078 15.0688C2.20654 15.0736 2.02899 15.0646 1.88379 14.9194C1.73882 14.7742 1.72962 14.5965 1.73438 14.5024C1.73883 14.4166 1.76007 14.3173 1.77441 14.2456L2.27734 11.73C2.33301 11.4516 2.37274 11.2293 2.47949 11.0298C2.58628 10.8304 2.74854 10.6738 2.94922 10.4731L8.12891 5.29346ZM2.84082 11.2231C2.80508 11.2899 2.77986 11.3615 2.75586 11.4536C2.73179 11.5458 2.70892 11.659 2.67871 11.8101L2.67969 11.811C2.74008 11.5091 2.77021 11.3579 2.8418 11.2241L2.84082 11.2231ZM11.9785 2.1167C12.2916 2.13333 12.549 2.27138 12.79 2.4585C13.023 2.63944 13.2826 2.90032 13.5928 3.21045C13.9029 3.52053 14.1637 3.78022 14.3447 4.01318C14.5319 4.25421 14.6698 4.51169 14.6865 4.82471C14.6892 4.8749 14.6892 4.92588 14.6865 4.97607C14.67 5.28921 14.5319 5.54652 14.3447 5.7876C14.1638 6.02059 13.9029 6.2802 13.5928 6.59033L12.2832 7.89893C10.8217 7.15822 9.63446 5.97935 8.88379 4.5376L10.2129 3.21045C10.523 2.90032 10.7826 2.63944 11.0156 2.4585C11.2567 2.27139 11.5141 2.13332 11.8271 2.1167C11.8774 2.11406 11.9283 2.11406 11.9785 2.1167ZM14.25 5.11475C14.2514 5.10952 14.2545 5.10436 14.2559 5.09912L14.2598 5.06592C14.2563 5.08211 14.2544 5.09868 14.25 5.11475ZM13.7598 3.96729C13.7467 3.95337 13.7343 3.9376 13.7207 3.92334L13.3027 3.50049C13.4798 3.67751 13.6316 3.83108 13.7598 3.96729ZM11.8486 2.52686C11.8847 2.52495 11.921 2.52495 11.957 2.52686C12.0524 2.53192 12.1431 2.55475 12.2354 2.59521C12.1903 2.57545 12.1457 2.55865 12.1006 2.54736L11.957 2.52588C11.9212 2.524 11.8845 2.52399 11.8486 2.52588V2.52686Z" fill="#222222"/>
</svg>
