<svg width="30" height="30" viewBox="0 0 30 30" fill="none" xmlns="http://www.w3.org/2000/svg">
<path d="M16.875 19.75C17.0131 19.75 17.125 19.8619 17.125 20V26.25H12.875V20C12.875 19.8619 12.9869 19.75 13.125 19.75H16.875ZM15 6.18848C16.3872 6.18848 17.5517 7.1872 19.8809 9.18359L21.1309 10.2549C22.4195 11.3594 23.0641 11.9123 23.4072 12.6582C23.7501 13.404 23.75 14.2526 23.75 15.9492V21.25C23.75 23.607 23.7498 24.7854 23.0176 25.5176C22.3253 26.2099 21.2341 26.247 19.125 26.249V20C19.125 18.7574 18.1176 17.75 16.875 17.75H13.125C11.8824 17.75 10.875 18.7574 10.875 20V26.249C8.76588 26.247 7.67475 26.2099 6.98242 25.5176C6.2502 24.7854 6.25 23.607 6.25 21.25V15.9492C6.25 14.2526 6.24995 13.404 6.59277 12.6582C6.93585 11.9123 7.58053 11.3594 8.86914 10.2549L10.1191 9.18359C12.4483 7.1872 13.6128 6.18848 15 6.18848Z" fill="#8B868F"/>
</svg>
