<svg width="21" height="21" viewBox="0 0 21 21" fill="none" xmlns="http://www.w3.org/2000/svg">
<path d="M2.88577 12.5417C2.33062 11.5438 2.05305 11.0448 2.05305 10.5C2.05305 9.95522 2.33062 9.45623 2.88577 8.45827L3.87707 6.67625L4.9247 4.92674C5.51138 3.94699 5.80473 3.45712 6.27653 3.18473C6.74832 2.91233 7.31924 2.90323 8.46107 2.88502L10.5 2.8525L12.5389 2.88502C13.6808 2.90323 14.2517 2.91233 14.7235 3.18473C15.1953 3.45712 15.4886 3.94699 16.0753 4.92675L17.1229 6.67625L18.1142 8.45827C18.6694 9.45623 18.9469 9.95521 18.9469 10.5C18.9469 11.0448 18.6694 11.5438 18.1142 12.5417L17.1229 14.3237L16.0753 16.0733C15.4886 17.053 15.1953 17.5429 14.7235 17.8153C14.2517 18.0877 13.6808 18.0968 12.5389 18.115L10.5 18.1475L8.46107 18.115C7.31924 18.0968 6.74832 18.0877 6.27653 17.8153C5.80473 17.5429 5.51139 17.053 4.9247 16.0733L3.87707 14.3237L2.88577 12.5417Z" stroke="#8B868F" stroke-width="2.1"/>
<circle cx="10.5" cy="10.5" r="2.625" stroke="#8B868F" stroke-width="2.1"/>
</svg>
