<svg width="21" height="21" viewBox="0 0 21 21" fill="none" xmlns="http://www.w3.org/2000/svg">
<path d="M7 16.5622C8.06413 17.1766 9.27124 17.5 10.5 17.5C11.7288 17.5 12.9359 17.1766 14 16.5622C15.0641 15.9478 15.9478 15.0641 16.5622 14C17.1766 12.9359 17.5 11.7288 17.5 10.5C17.5 9.27124 17.1766 8.06414 16.5622 7C15.9478 5.93587 15.0641 5.0522 14 4.43782C12.9359 3.82344 11.7288 3.5 10.5 3.5C9.27124 3.5 8.06413 3.82344 7 4.43782" stroke="#C3272A" stroke-width="2.1"/>
<path d="M1.75 10.5L0.930088 9.84407L0.405344 10.5L0.930088 11.1559L1.75 10.5ZM9.625 11.55C10.2049 11.55 10.675 11.0799 10.675 10.5C10.675 9.9201 10.2049 9.45 9.625 9.45V10.5V11.55ZM5.25 6.125L4.43009 5.46907L0.930088 9.84407L1.75 10.5L2.56991 11.1559L6.06991 6.78093L5.25 6.125ZM1.75 10.5L0.930088 11.1559L4.43009 15.5309L5.25 14.875L6.06991 14.2191L2.56991 9.84407L1.75 10.5ZM1.75 10.5V11.55H9.625V10.5V9.45H1.75V10.5Z" fill="#C3272A"/>
</svg>
