<svg width="21" height="21" viewBox="0 0 21 21" fill="none" xmlns="http://www.w3.org/2000/svg">
<path d="M8.17087 13.9916C10.9327 13.8383 13.125 11.5502 13.125 8.75C13.125 5.85051 10.7745 3.5 7.875 3.5C4.97551 3.5 2.625 5.85051 2.625 8.75C2.625 9.78312 2.92332 10.7465 3.43865 11.5587L3.06763 12.6718L3.06704 12.6734C2.92493 13.0997 2.85384 13.313 2.90446 13.4549C2.94857 13.5786 3.04647 13.6761 3.17017 13.7203C3.31163 13.7707 3.5234 13.7001 3.94685 13.559L3.95288 13.5571L5.06628 13.1861C5.87851 13.7014 6.84193 13.9998 7.87505 13.9998C7.97433 13.9998 8.07296 13.9971 8.17087 13.9916ZM8.17087 13.9916C8.17095 13.9919 8.1708 13.9914 8.17087 13.9916ZM8.17087 13.9916C8.88919 16.0352 10.8361 17.5001 13.1251 17.5001C14.1582 17.5001 15.1214 17.2015 15.9336 16.6861L17.0468 17.0571L17.049 17.0576C17.4752 17.1996 17.6889 17.2709 17.8308 17.2202C17.9545 17.1761 18.0511 17.0786 18.0952 16.9549C18.1459 16.8128 18.075 16.5993 17.9326 16.1718L17.5615 15.0587L17.6858 14.8528C18.1246 14.0857 18.3745 13.197 18.3745 12.25C18.3745 9.35051 16.0245 7 13.125 7L12.9285 7.00362L12.8293 7.00847" stroke="#8B868F" stroke-width="1.68" stroke-linecap="round" stroke-linejoin="round"/>
</svg>
