<svg width="12" height="12" viewBox="0 0 12 12" fill="none" xmlns="http://www.w3.org/2000/svg">
<path d="M2 6.9C2 5.81844 2 5.27766 2.31236 4.92336C2.347 4.88407 2.38407 4.847 2.42336 4.81236C2.77766 4.5 3.31844 4.5 4.4 4.5H7.6C8.68156 4.5 9.22234 4.5 9.57664 4.81236C9.61593 4.847 9.653 4.88407 9.68764 4.92336C10 5.27766 10 5.81844 10 6.9C10 8.52234 10 9.3335 9.53146 9.86496C9.4795 9.92389 9.42389 9.9795 9.36496 10.0315C8.8335 10.5 8.02234 10.5 6.4 10.5H5.6C3.97766 10.5 3.1665 10.5 2.63504 10.0315C2.57611 9.9795 2.5205 9.92389 2.46854 9.86496C2 9.3335 2 8.52234 2 6.9Z" stroke="#7CCF77"/>
<path d="M8.25 4.5004L8.28878 4.1901C8.41825 3.15431 7.95216 2.13412 7.08441 1.55391C6.0512 0.863081 4.68366 0.948229 3.74412 1.76189L3.33496 2.11624" stroke="#7CCF77" stroke-linecap="round"/>
<circle cx="6" cy="7.5" r="1" fill="#7CCF77"/>
</svg>
