<svg width="10" height="10" viewBox="0 0 10 10" fill="none" xmlns="http://www.w3.org/2000/svg">
<path d="M4.42477 1.02824C4.67638 0.578473 5.32362 0.578473 5.57523 1.02824C5.75637 1.35203 6.16895 1.46258 6.48772 1.27274C6.9305 1.00904 7.49102 1.33265 7.48404 1.84797C7.47902 2.21895 7.78105 2.52098 8.15203 2.51596C8.66735 2.50898 8.99096 3.0695 8.72726 3.51228C8.53742 3.83105 8.64797 4.24363 8.97176 4.42477C9.42153 4.67638 9.42153 5.32362 8.97176 5.57523C8.64797 5.75637 8.53742 6.16895 8.72726 6.48772C8.99096 6.9305 8.66735 7.49102 8.15203 7.48404C7.78105 7.47902 7.47902 7.78105 7.48404 8.15203C7.49102 8.66735 6.9305 8.99096 6.48772 8.72726C6.16895 8.53742 5.75637 8.64797 5.57523 8.97176C5.32362 9.42153 4.67638 9.42153 4.42477 8.97176C4.24363 8.64797 3.83105 8.53742 3.51228 8.72726C3.0695 8.99096 2.50898 8.66735 2.51596 8.15203C2.52098 7.78105 2.21895 7.47902 1.84797 7.48404C1.33265 7.49102 1.00904 6.9305 1.27274 6.48772C1.46258 6.16895 1.35203 5.75637 1.02824 5.57523C0.578473 5.32362 0.578473 4.67638 1.02824 4.42477C1.35203 4.24363 1.46258 3.83105 1.27274 3.51228C1.00904 3.0695 1.33265 2.50898 1.84797 2.51596C2.21895 2.52098 2.52098 2.21895 2.51596 1.84797C2.50898 1.33265 3.0695 1.00904 3.51228 1.27274C3.83105 1.46258 4.24363 1.35203 4.42477 1.02824Z" fill="#E95285"/>
<path d="M3.20274 4.87695L4.54922 6.12329L6.79688 3.87695" stroke="white" stroke-linecap="round"/>
</svg>
